<?xml version="1.0" standalone="no"?>
<!DOCTYPE svg PUBLIC "-//W3C//DTD SVG 20010904//EN"
 "http://www.w3.org/TR/2001/REC-SVG-20010904/DTD/svg10.dtd">
<svg version="1.0" xmlns="http://www.w3.org/2000/svg"
 width="738.000000pt" height="738.000000pt" viewBox="0 0 738.000000 738.000000"
 preserveAspectRatio="xMidYMid meet">
<metadata>
Created by potrace 1.11, written by Peter Selinger 2001-2013
</metadata>
<g transform="translate(0.000000,738.000000) scale(0.100000,-0.100000)"
fill="#000000" stroke="none">
<path d="M591 4898 c0 -2660 -2 -2530 48 -2693 63 -203 221 -428 374 -532 23
-15 44 -30 47 -33 3 -3 14 -10 25 -17 11 -6 92 -57 180 -113 88 -56 169 -107
180 -113 10 -7 52 -33 93 -59 40 -27 76 -48 78 -48 3 0 37 -21 77 -47 102 -67
108 -71 145 -90 17 -9 32 -20 32 -25 0 -4 5 -8 12 -8 6 0 26 -11 45 -26 18
-14 33 -21 33 -17 0 4 4 3 8 -2 7 -11 88 -65 96 -65 3 0 33 -19 68 -43 35 -24
87 -56 115 -73 29 -16 53 -32 53 -36 0 -5 5 -8 10 -8 6 0 23 -8 38 -19 75 -52
188 -121 198 -121 7 0 15 -7 18 -16 3 -8 10 -13 15 -10 4 3 16 -3 26 -14 10
-11 24 -20 32 -20 7 0 13 -4 13 -10 0 -5 5 -10 11 -10 6 0 31 -13 55 -30 24
-16 92 -59 151 -96 60 -37 209 -131 333 -209 124 -77 271 -170 328 -206 56
-35 111 -69 123 -75 18 -10 33 -4 105 40 46 28 92 56 101 61 10 6 43 26 74 45
30 19 64 40 75 47 105 64 200 124 256 160 37 24 72 43 77 43 6 0 11 4 11 9 0
5 8 11 18 15 9 3 49 26 87 51 39 24 85 52 103 61 17 9 32 20 32 25 0 5 5 9 12
9 6 0 26 11 45 26 18 14 33 22 33 18 0 -4 8 0 17 8 10 9 155 100 323 203 168
103 317 196 332 206 15 10 32 19 38 19 5 0 10 5 10 10 0 6 6 10 14 10 8 0 21
6 28 13 7 7 29 22 48 33 19 10 37 22 40 25 3 3 12 8 20 12 8 4 47 27 85 52 39
25 77 48 85 52 8 4 17 9 20 13 4 6 74 48 148 90 14 8 31 18 37 23 23 17 86 57
90 57 3 0 200 122 221 137 20 15 49 33 64 40 17 8 14 6 91 67 197 155 322 366
379 640 18 88 19 171 20 2569 l0 2477 -3100 0 -3100 0 1 -2482z"/>
</g>
</svg>
