<svg xmlns="http://www.w3.org/2000/svg" viewBox="0 0 600 295"><g fill="none" fill-rule="evenodd"><path fill="#29C1E3" d="M74 19h318v208H74z"/><path fill="#244A61" d="M392 226H77V19h315v207zM234.996 6A3.002 3.002 0 0 1 238 9a2.999 2.999 0 1 1-6 0c0-1.656 1.34-3 2.996-3zm171.616-6H63.388C61.525 0 60 1.717 60 3.815v236.637c0 2.098 1.525 3.815 3.388 3.815h157.614c-.015.03-.042.057-.056.088l-9.593 21.91c-.41.94-1.47 1.985-2.353 2.32l-17.855 6.803c-.882.337-.842.612.09.612h87.527c.933 0 .974-.275.09-.612L261 268.586c-.883-.336-1.942-1.38-2.355-2.322l-9.595-21.91c-.013-.03-.04-.056-.054-.087h157.616c1.863 0 3.388-1.717 3.388-3.815V3.815C410 1.717 408.475 0 406.612 0zM60 0h136"/><path fill="#4597B9" d="M85 26h301v30H85z"/><path fill="#97E4F2" d="M85 62h41v163H85zm50 88h252v76H135zm0-47h79v41h-79zm85 0h79v41h-79zm86 0h79v41h-79zM144.133 77.854h7.168v9.367c-1.16.38-2.255.646-3.28.8-1.026.15-2.075.227-3.146.227-2.727 0-4.81-.8-6.247-2.404-1.438-1.602-2.156-3.903-2.156-6.902 0-2.915.835-5.19 2.503-6.82 1.67-1.632 3.982-2.447 6.94-2.447 1.853 0 3.64.37 5.363 1.112l-1.273 3.065a9.08 9.08 0 0 0-4.115-.99c-1.656 0-2.983.557-3.98 1.67-.997 1.112-1.495 2.607-1.495 4.485 0 1.96.402 3.46 1.205 4.493.803 1.034 1.97 1.55 3.503 1.55.8 0 1.612-.082 2.436-.246v-3.77h-3.423v-3.188zm14.212-7.922l.173.272c-.412 1.623-1.137 3.596-2.175 5.92h-2.707c.57-2.44.98-4.503 1.236-6.192h3.473zm6.822 18.315c-1.623 0-2.898-.63-3.825-1.89-.927-1.26-1.39-3.008-1.39-5.24 0-2.266.47-4.03 1.414-5.296.944-1.264 2.244-1.896 3.9-1.896 1.738 0 3.064.675 3.98 2.027h.123c-.19-1.03-.286-1.948-.286-2.755V68.77h3.782V88h-2.892l-.73-1.792h-.16c-.857 1.36-2.162 2.04-3.917 2.04zm1.322-3.003c.963 0 1.67-.28 2.118-.84.45-.56.695-1.512.736-2.855v-.41c0-1.482-.23-2.545-.686-3.187-.457-.643-1.2-.964-2.23-.964-.84 0-1.494.355-1.96 1.068-.465.712-.698 1.748-.698 3.108s.235 2.38.705 3.06c.47.678 1.14 1.018 2.014 1.018zM185.582 88l-.73-1.878h-.098c-.635.8-1.288 1.353-1.96 1.662-.67.31-1.546.463-2.625.463-1.327 0-2.37-.38-3.133-1.137-.762-.758-1.143-1.837-1.143-3.238 0-1.466.513-2.548 1.538-3.244 1.026-.696 2.573-1.08 4.64-1.155l2.398-.074v-.607c0-1.4-.716-2.1-2.15-2.1-1.104 0-2.402.333-3.893 1l-1.248-2.546c1.59-.832 3.352-1.248 5.288-1.248 1.854 0 3.275.403 4.264 1.21.99.808 1.483 2.035 1.483 3.683V88h-2.632zm-1.113-6.402l-1.458.05c-1.096.033-1.91.23-2.447.593-.535.364-.803.916-.803 1.657 0 1.063.61 1.594 1.83 1.594.872 0 1.57-.25 2.094-.753.523-.502.784-1.17.784-2.002V81.6zm5.648-7.415h4.128l2.607 7.774c.223.675.375 1.475.458 2.397h.075c.09-.848.268-1.647.53-2.397l2.56-7.774h4.04l-5.845 15.584c-.535 1.442-1.3 2.52-2.292 3.238-.993.717-2.153 1.075-3.48 1.075-.65 0-1.29-.07-1.915-.21v-2.99c.453.107.948.16 1.483.16.668 0 1.25-.204 1.75-.612.497-.407.887-1.023 1.167-1.847l.222-.68-5.487-13.717zm20.07 11.16c-.428 1.664-1.153 3.637-2.175 5.92h-2.72c.537-2.192.953-4.26 1.25-6.204h3.46l.185.283zM231.766 88l-1.063-4.832-1.434-6.105h-.087L226.663 88h-4.055l-3.93-13.817h3.757l1.594 6.118c.255 1.097.514 2.608.778 4.536h.074c.033-.626.177-1.62.433-2.978l.197-1.05 1.706-6.625h4.152l1.62 6.624c.032.182.084.45.154.804.07.355.138.732.204 1.132.065.4.125.79.18 1.174.052.383.083.69.09.92h.076c.074-.593.206-1.407.395-2.44.19-1.034.325-1.733.407-2.095l1.656-6.117h3.695L235.868 88h-4.102zm13.31-6.933c0 1.368.224 2.402.673 3.102.448.7 1.18 1.05 2.193 1.05 1.005 0 1.728-.35 2.17-1.045.44-.696.66-1.732.66-3.108 0-1.368-.223-2.393-.668-3.077-.444-.684-1.174-1.026-2.187-1.026-1.005 0-1.73.34-2.175 1.02-.445.68-.667 1.707-.667 3.083zm9.553 0c0 2.25-.595 4.008-1.78 5.277-1.187 1.27-2.84 1.903-4.957 1.903-1.326 0-2.496-.29-3.51-.87-1.013-.582-1.79-1.416-2.335-2.504-.544-1.087-.816-2.356-.816-3.806 0-2.257.59-4.012 1.767-5.265 1.178-1.252 2.834-1.878 4.967-1.878 1.327 0 2.497.288 3.51.865 1.014.576 1.792 1.404 2.336 2.483.544 1.08.816 2.344.816 3.794zm10.825-7.143c.51 0 .935.037 1.272.11l-.284 3.536a4.287 4.287 0 0 0-1.112-.124c-1.202 0-2.14.31-2.81.927-.672.618-1.008 1.483-1.008 2.595V88h-3.77V74.183h2.856l.556 2.324h.185a5.174 5.174 0 0 1 1.736-1.873 4.29 4.29 0 0 1 2.38-.71zM273.005 88h-3.77V68.77h3.77V88zm8.33.247c-1.623 0-2.898-.63-3.825-1.89-.927-1.26-1.39-3.008-1.39-5.24 0-2.266.47-4.03 1.415-5.296.943-1.264 2.243-1.896 3.9-1.896 1.737 0 3.064.675 3.978 2.027h.124c-.19-1.03-.284-1.948-.284-2.755V68.77h3.78V88h-2.89l-.73-1.792h-.16c-.857 1.36-2.163 2.04-3.918 2.04zm1.322-3.003c.964 0 1.67-.28 2.12-.84.45-.56.694-1.512.735-2.855v-.41c0-1.482-.23-2.545-.686-3.187-.457-.643-1.2-.964-2.23-.964-.84 0-1.494.355-1.96 1.068-.465.712-.698 1.748-.698 3.108s.235 2.38.705 3.06c.47.678 1.14 1.018 2.014 1.018zm9.788.99c0-.693.185-1.216.556-1.57.372-.355.912-.532 1.62-.532.684 0 1.213.18 1.588.544.375.362.563.88.563 1.557 0 .65-.19 1.163-.568 1.538-.38.376-.906.564-1.582.564-.692 0-1.227-.184-1.606-.55-.38-.367-.57-.884-.57-1.55zM306 65h79v4h-79zm0 7h79v4h-79zm0 7h79v4h-79zm0 7h79v4h-79zm0 7h53v4h-53z"/><path fill="#244A61" d="M468 278h126.574c1.884 0 3.426 1.723 3.426 3.828v7.344c0 2.105-1.542 3.828-3.426 3.828H288.426c-1.884 0-3.426-1.723-3.426-3.828v-7.344c0-2.105 1.542-3.828 3.426-3.828H416v4.055c0 1.07.772 1.945 1.715 1.945h48.57c.943 0 1.715-.875 1.715-1.945V278zm86-17.948c0 1.07-.77 1.948-1.71 1.948H329.71c-.94 0-1.71-.877-1.71-1.948V114.948c0-1.07.77-1.948 1.71-1.948h222.58c.94 0 1.71.877 1.71 1.948v145.104zM441.497 106c.826 0 1.503.67 1.503 1.503 0 .828-.677 1.497-1.503 1.497-.828 0-1.497-.67-1.497-1.497 0-.832.67-1.503 1.497-1.503zm-122.787-4c-.94 0-1.71.878-1.71 1.95v168.1c0 1.072.77 1.95 1.71 1.95h244.58c.94 0 1.71-.878 1.71-1.95v-168.1c0-1.072-.77-1.95-1.71-1.95H318.71z"/><path fill="#29C1E3" d="M328 113h227v151H328z"/><path fill="#97E4F2" d="M349.103 143.11h5.575v7.284c-.903.295-1.754.502-2.552.62-.798.12-1.613.178-2.446.178-2.12 0-3.74-.623-4.86-1.87-1.117-1.246-1.676-3.035-1.676-5.368 0-2.268.65-4.037 1.946-5.305 1.298-1.27 3.097-1.905 5.397-1.905 1.442 0 2.833.29 4.172.865l-.99 2.384a7.086 7.086 0 0 0-3.202-.77c-1.288 0-2.32.434-3.095 1.3-.775.864-1.163 2.027-1.163 3.488 0 1.525.312 2.69.937 3.494.625.804 1.533 1.206 2.725 1.206.622 0 1.253-.064 1.894-.192v-2.932h-2.663v-2.48zm11.054-6.163l.135.212c-.32 1.26-.885 2.796-1.692 4.603h-2.105c.442-1.897.763-3.502.96-4.816h2.702zm5.306 14.245c-1.262 0-2.254-.49-2.975-1.47-.72-.98-1.08-2.34-1.08-4.076 0-1.762.366-3.135 1.1-4.12.733-.982 1.744-1.474 3.032-1.474 1.352 0 2.384.525 3.095 1.576h.096a12.09 12.09 0 0 1-.22-2.143v-3.44h2.94V151h-2.248l-.567-1.394h-.125c-.666 1.058-1.682 1.586-3.047 1.586zm1.028-2.335c.75 0 1.3-.218 1.65-.654.35-.436.54-1.176.572-2.22v-.318c0-1.153-.178-1.98-.534-2.48-.355-.5-.934-.75-1.735-.75-.653 0-1.16.278-1.523.832-.362.554-.543 1.36-.543 2.418 0 1.057.182 1.85.548 2.38.365.527.887.792 1.566.792zM381.343 151l-.567-1.46h-.077c-.493.62-1 1.05-1.523 1.292-.523.24-1.204.36-2.043.36-1.032 0-1.844-.295-2.437-.884-.592-.59-.89-1.43-.89-2.518 0-1.14.4-1.982 1.198-2.524.798-.54 2-.84 3.61-.898l1.864-.058v-.47c0-1.09-.558-1.635-1.673-1.635-.858 0-1.867.26-3.027.78l-.97-1.982c1.236-.647 2.607-.97 4.113-.97 1.442 0 2.547.314 3.316.942.77.628 1.153 1.582 1.153 2.864V151h-2.048zm-.865-4.98l-1.134.04c-.853.025-1.487.18-1.903.46-.417.283-.625.712-.625 1.29 0 .825.474 1.24 1.422 1.24.68 0 1.223-.197 1.63-.588.407-.39.61-.91.61-1.557v-.884zm4.393-5.766h3.21l2.028 6.046c.173.525.292 1.147.356 1.864h.058c.07-.66.208-1.28.413-1.864l1.99-6.046h3.143l-4.547 12.12c-.415 1.122-1.01 1.96-1.782 2.52-.772.556-1.674.835-2.706.835a6.81 6.81 0 0 1-1.49-.164v-2.326c.353.083.737.125 1.154.125.52 0 .972-.16 1.36-.476.388-.318.69-.797.908-1.438l.173-.53-4.267-10.668zm15.61 8.68c-.334 1.294-.898 2.83-1.692 4.604h-2.115c.417-1.705.74-3.313.97-4.826h2.692l.145.22zM417.262 151l-.826-3.758-1.115-4.75h-.067l-1.96 8.508h-3.153l-3.057-10.746h2.922l1.24 4.758c.2.852.4 2.028.606 3.527h.058c.026-.488.138-1.26.337-2.317l.154-.817 1.325-5.152h3.23l1.26 5.152c.024.14.065.35.12.625a38.076 38.076 0 0 1 .298 1.793c.04.298.065.537.07.716h.06c.056-.462.16-1.095.306-1.9a48.59 48.59 0 0 1 .316-1.628l1.288-4.758h2.874L420.453 151h-3.19zm10.352-5.392c0 1.063.175 1.868.524 2.412.35.545.918.817 1.706.817.782 0 1.344-.27 1.687-.812.344-.54.516-1.347.516-2.417 0-1.064-.173-1.862-.52-2.394-.346-.532-.913-.798-1.7-.798-.783 0-1.347.265-1.693.793-.346.528-.52 1.328-.52 2.398zm7.43 0c0 1.75-.46 3.117-1.384 4.104-.922.987-2.207 1.48-3.854 1.48-1.032 0-1.942-.226-2.73-.677a4.508 4.508 0 0 1-1.817-1.947c-.423-.846-.635-1.833-.635-2.96 0-1.756.458-3.12 1.375-4.095.916-.974 2.204-1.46 3.864-1.46 1.03 0 1.94.223 2.73.672a4.485 4.485 0 0 1 1.816 1.932c.423.84.634 1.823.634 2.95zm8.42-5.556c.398 0 .728.03.99.086l-.22 2.75a3.322 3.322 0 0 0-.865-.097c-.937 0-1.666.242-2.188.722-.522.48-.784 1.154-.784 2.02V151h-2.93v-10.746h2.22l.432 1.807h.144a4.033 4.033 0 0 1 1.35-1.455 3.318 3.318 0 0 1 1.85-.553zM449.34 151h-2.932v-14.956h2.932V151zm6.478.192c-1.262 0-2.254-.49-2.975-1.47-.72-.98-1.08-2.34-1.08-4.076 0-1.762.367-3.135 1.1-4.12.734-.982 1.745-1.474 3.033-1.474 1.352 0 2.384.525 3.095 1.576h.096c-.147-.8-.22-1.515-.22-2.143v-3.44h2.94V151h-2.25l-.566-1.394h-.125c-.666 1.058-1.682 1.586-3.047 1.586zm1.03-2.335c.748 0 1.298-.218 1.647-.654.35-.436.54-1.176.572-2.22v-.318c0-1.153-.178-1.98-.534-2.48-.354-.5-.932-.75-1.733-.75-.654 0-1.162.278-1.524.832-.362.554-.543 1.36-.543 2.418 0 1.057.183 1.85.548 2.38.365.527.887.792 1.567.792zm7.61.768c0-.538.145-.945.434-1.22.288-.276.708-.414 1.26-.414.53 0 .943.142 1.234.424.292.282.438.686.438 1.21 0 .508-.148.907-.443 1.198-.295.292-.706.438-1.23.438-.54 0-.956-.143-1.25-.428-.295-.285-.443-.687-.443-1.207zM478 134h62v4h-62zm0 7h62v4h-62zm0 7h62v4h-62zm0 7h41v4h-41zm-136 44h200v57H342zm0-35h63v31h-63zm137 0h63v31h-63zm-69 0h63v31h-63z"/><path fill="#244A61" d="M104 268H8V141h96v127zm-47 18c-3.312 0-6-2.69-6-6s2.688-6 6-6c3.32 0 6 2.69 6 6s-2.68 6-6 6zm-.5-158c1.384 0 2.5 1.125 2.5 2.505A2.5 2.5 0 1 1 56.5 128zm52.18-8H3.32C1.493 120 0 121.68 0 123.732v164.536C0 290.32 1.494 292 3.32 292h105.36c1.826 0 3.32-1.68 3.32-3.732V123.732c0-2.053-1.494-3.732-3.32-3.732z"/><path fill="#29C1E3" d="M7 138h97v131H7z"/><path fill="#97E4F2" d="M13 182h79v4H13zm0 7h79v4H13zm0 7h79v4H13zm0 7h79v4H13zm0 7h53v4H13zm0 11h27v21H13zm0 24h27v21H13zm30-24h27v21H43zm0 24h27v21H43zm30-24h27v21H73zm0 24h27v21H73zm-55.434-83.073h3.584v4.684c-.58.19-1.127.323-1.64.4-.513.075-1.037.114-1.573.114-1.363 0-2.405-.4-3.123-1.202-.72-.802-1.08-1.952-1.08-3.45 0-1.46.418-2.597 1.253-3.412.834-.816 1.99-1.224 3.47-1.224.926 0 1.82.186 2.68.556l-.635 1.533a4.543 4.543 0 0 0-2.058-.494c-.828 0-1.49.28-1.99.835-.498.556-.748 1.304-.748 2.243 0 .98.2 1.73.603 2.246.4.517.985.775 1.75.775.4 0 .806-.042 1.218-.124v-1.885h-1.712v-1.593zm7.106-3.96l.087.135c-.207.812-.57 1.798-1.09 2.96H22.32c.284-1.22.49-2.25.618-3.096h1.736zm3.41 9.157c-.81 0-1.448-.316-1.91-.946-.465-.63-.696-1.503-.696-2.62 0-1.133.236-2.015.707-2.648.472-.632 1.122-.948 1.95-.948.87 0 1.532.338 1.99 1.013h.06a7.848 7.848 0 0 1-.14-1.378v-2.212h1.89V167h-1.446l-.365-.896h-.08c-.428.68-1.08 1.02-1.96 1.02zm.663-1.502c.48 0 .835-.14 1.06-.42.224-.28.346-.756.367-1.428v-.203c0-.74-.114-1.272-.343-1.594-.23-.32-.6-.482-1.116-.482-.42 0-.747.18-.98.535-.233.355-.35.873-.35 1.553 0 .68.118 1.19.353 1.53.235.34.57.51 1.008.51zM38.29 167l-.363-.94h-.05c-.317.4-.643.677-.98.832-.335.154-.773.232-1.312.232-.663 0-1.186-.19-1.567-.57-.38-.378-.57-.918-.57-1.618 0-.733.255-1.274.768-1.622.513-.348 1.286-.54 2.32-.578l1.2-.037v-.303c0-.7-.36-1.05-1.076-1.05-.552 0-1.2.166-1.946.5l-.625-1.273c.795-.416 1.676-.624 2.644-.624.927 0 1.638.2 2.132.605.494.404.74 1.018.74 1.842V167H38.29zm-.555-3.2l-.73.024c-.547.016-.955.115-1.222.297-.268.182-.402.458-.402.83 0 .53.306.796.915.796.437 0 .786-.126 1.048-.377.26-.253.392-.586.392-1.002v-.57zm2.824-3.708h2.063l1.304 3.886c.11.338.187.738.228 1.2h.037c.046-.425.134-.825.266-1.2l1.28-3.886h2.02l-2.923 7.792c-.268.72-.65 1.26-1.146 1.62-.498.357-1.077.536-1.74.536-.326 0-.645-.035-.958-.105v-1.495c.226.053.473.08.74.08.335 0 .626-.102.875-.306.25-.204.444-.512.584-.924l.113-.34-2.744-6.858zm10.034 5.58c-.214.832-.577 1.818-1.087 2.96h-1.36a35.73 35.73 0 0 0 .624-3.103h1.73l.094.14zM61.384 167l-.533-2.416-.715-3.053h-.044L58.83 167h-2.026l-1.965-6.908h1.878l.797 3.058c.127.548.257 1.304.39 2.268h.036c.018-.313.09-.81.217-1.49l.1-.524.852-3.312h2.075l.81 3.312c.016.09.042.224.077.4a24.984 24.984 0 0 1 .192 1.155c.026.19.042.345.046.46h.037c.037-.296.103-.703.198-1.22.094-.517.162-.866.203-1.048l.828-3.058h1.848L63.434 167h-2.05zm6.654-3.467c0 .684.112 1.2.337 1.55.224.352.59.527 1.096.527.504 0 .865-.174 1.086-.522.22-.35.33-.867.33-1.555 0-.683-.11-1.196-.333-1.538-.223-.342-.587-.513-1.094-.513-.504 0-.866.17-1.09.51-.22.34-.332.854-.332 1.54zm4.776 0c0 1.125-.296 2.005-.89 2.64-.593.633-1.42.95-2.477.95-.664 0-1.25-.145-1.755-.435a2.902 2.902 0 0 1-1.168-1.25c-.272-.545-.408-1.18-.408-1.905 0-1.128.295-2.006.884-2.632.59-.625 1.417-.938 2.484-.938.663 0 1.248.144 1.755.432a2.9 2.9 0 0 1 1.166 1.242c.272.54.408 1.172.408 1.897zm5.413-3.57c.256 0 .468.017.637.055l-.142 1.767a2.219 2.219 0 0 0-.557-.062c-.6 0-1.07.154-1.405.463-.336.31-.504.742-.504 1.298V167H74.37v-6.908h1.43l.277 1.16h.093c.214-.386.503-.698.868-.935.364-.237.76-.355 1.19-.355zM82.003 167h-1.885v-9.615h1.885V167zm4.164.124c-.81 0-1.45-.316-1.912-.946-.463-.63-.695-1.503-.695-2.62 0-1.133.236-2.015.707-2.648.472-.632 1.122-.948 1.95-.948.87 0 1.532.338 1.99 1.013h.06a7.848 7.848 0 0 1-.14-1.378v-2.212h1.89V167H88.57l-.363-.896h-.08c-.43.68-1.082 1.02-1.96 1.02zm.662-1.502c.48 0 .834-.14 1.058-.42.225-.28.347-.756.368-1.428v-.203c0-.74-.114-1.272-.343-1.594-.23-.32-.6-.482-1.115-.482-.42 0-.747.18-.98.535-.232.355-.35.873-.35 1.553 0 .68.12 1.19.353 1.53.236.34.572.51 1.01.51zm4.893.494c0-.346.092-.607.278-.784.186-.178.456-.266.81-.266.342 0 .607.09.794.272.188.18.28.44.28.778 0 .326-.093.582-.283.77-.188.187-.452.28-.79.28-.346 0-.614-.09-.803-.274-.19-.183-.284-.442-.284-.776z"/><path fill="#244A61" d="M175 274h-49v-90h49v90zm-24 15c-2.762 0-5-2.243-5-5 0-2.764 2.238-5 5-5a5 5 0 1 1 0 10zm-7-109h12v1.366h-12V180zm6.5-5a1.5 1.5 0 1 1-.001 3.001A1.5 1.5 0 0 1 150.5 175zm25.374-4h-50.748c-1.72 0-3.126 1.55-3.126 3.443v115.114c0 1.893 1.407 3.443 3.126 3.443h50.748c1.72 0 3.126-1.55 3.126-3.443V174.443c0-1.893-1.407-3.443-3.126-3.443z"/><path fill="#29C1E3" d="M125 184h51v91h-51z"/><path fill="#97E4F2" d="M130 241h41v4h-41zm0-7h41v4h-41zm0 14h41v4h-41zm0 7h41v4h-41zm0 7h41v4h-41zm0 7h27v4h-27zm3.566-68.073h3.584v4.684c-.58.19-1.127.323-1.64.4-.513.075-1.037.114-1.573.114-1.363 0-2.405-.4-3.123-1.202-.72-.802-1.08-1.952-1.08-3.45 0-1.46.418-2.597 1.253-3.412.834-.816 1.99-1.224 3.47-1.224.926 0 1.82.186 2.68.556l-.635 1.533a4.543 4.543 0 0 0-2.058-.494c-.828 0-1.49.28-1.99.835-.498.556-.748 1.304-.748 2.243 0 .98.2 1.73.603 2.246.4.517.985.775 1.75.775.4 0 .806-.042 1.218-.124v-1.885h-1.712v-1.593zm7.106-3.96l.087.135c-.207.812-.57 1.798-1.09 2.96h-1.352c.284-1.22.49-2.25.618-3.096h1.736zm3.41 9.157c-.81 0-1.448-.316-1.91-.946-.465-.63-.696-1.503-.696-2.62 0-1.133.236-2.015.707-2.648.472-.632 1.122-.948 1.95-.948.87 0 1.532.338 1.99 1.013h.06a7.848 7.848 0 0 1-.14-1.378v-2.212h1.89V206h-1.446l-.365-.896h-.08c-.428.68-1.08 1.02-1.96 1.02zm.663-1.502c.48 0 .835-.14 1.06-.42.224-.28.346-.756.367-1.428v-.203c0-.74-.114-1.272-.343-1.594-.23-.32-.6-.482-1.116-.482-.42 0-.747.18-.98.535-.233.355-.35.873-.35 1.553 0 .68.118 1.19.353 1.53.235.34.57.51 1.008.51zM154.29 206l-.363-.94h-.05c-.317.4-.643.677-.98.832-.335.154-.773.232-1.312.232-.663 0-1.186-.19-1.567-.57-.38-.378-.57-.918-.57-1.618 0-.733.255-1.274.768-1.622.513-.348 1.286-.54 2.32-.578l1.2-.037v-.303c0-.7-.36-1.05-1.076-1.05-.552 0-1.2.166-1.946.5l-.625-1.273c.795-.416 1.676-.624 2.644-.624.927 0 1.638.2 2.132.605.494.404.74 1.018.74 1.842V206h-1.315zm-.555-3.2l-.73.024c-.547.016-.955.115-1.222.297-.268.182-.402.458-.402.83 0 .53.306.796.915.796.437 0 .786-.126 1.048-.377.26-.253.392-.586.392-1.002v-.57zm2.824-3.708h2.063l1.304 3.886c.11.338.187.738.228 1.2h.037c.046-.425.134-.825.266-1.2l1.28-3.886h2.02l-2.923 7.792c-.268.72-.65 1.26-1.146 1.62-.498.357-1.077.536-1.74.536-.326 0-.645-.035-.958-.105v-1.495c.226.053.473.08.74.08.335 0 .626-.102.875-.306.25-.204.444-.512.584-.924l.113-.34-2.744-6.858zm10.034 5.58c-.214.832-.577 1.818-1.087 2.96h-1.36a35.73 35.73 0 0 0 .624-3.103h1.73l.094.14zM135.667 217l-.53-2.416-.718-3.053h-.044l-1.26 5.47h-2.027l-1.966-6.908H131l.797 3.058c.127.548.257 1.304.388 2.268h.038c.016-.313.088-.81.216-1.49l.1-.524.85-3.312h2.078l.81 3.312c.016.09.04.224.076.4a24.984 24.984 0 0 1 .192 1.155c.027.19.042.345.046.46h.037c.038-.296.104-.703.2-1.22.094-.517.162-.866.203-1.048l.828-3.058h1.848l-1.99 6.908h-2.05zm6.655-3.467c0 .684.113 1.2.337 1.55.224.352.59.527 1.096.527.502 0 .864-.174 1.084-.522.22-.35.33-.867.33-1.555 0-.683-.11-1.196-.333-1.538-.222-.342-.587-.513-1.094-.513-.502 0-.865.17-1.087.51-.222.34-.334.854-.334 1.54zm4.777 0c0 1.125-.298 2.005-.89 2.64-.594.633-1.42.95-2.48.95-.662 0-1.247-.145-1.754-.435a2.908 2.908 0 0 1-1.168-1.25c-.272-.545-.407-1.18-.407-1.905 0-1.128.295-2.006.884-2.632.59-.625 1.417-.938 2.484-.938.663 0 1.248.144 1.755.432.507.29.896.703 1.168 1.242.273.54.41 1.172.41 1.897zm5.412-3.57c.255 0 .467.017.636.055l-.142 1.767a2.21 2.21 0 0 0-.556-.062c-.602 0-1.07.154-1.406.463-.336.31-.503.742-.503 1.298V217h-1.884v-6.908h1.427l.278 1.16h.094c.214-.386.504-.698.868-.935.365-.237.76-.355 1.19-.355zm3.775 7.037h-1.884v-9.615h1.884V217zm4.165.124c-.812 0-1.45-.316-1.913-.946-.464-.63-.696-1.503-.696-2.62 0-1.133.236-2.015.708-2.648.472-.632 1.12-.948 1.95-.948.87 0 1.532.338 1.99 1.013h.06a7.753 7.753 0 0 1-.14-1.378v-2.212h1.89V217h-1.446l-.365-.896h-.08c-.428.68-1.08 1.02-1.958 1.02zm.66-1.502c.483 0 .836-.14 1.06-.42.225-.28.348-.756.37-1.428v-.203c0-.74-.116-1.272-.344-1.594-.23-.32-.6-.482-1.116-.482-.42 0-.746.18-.98.535-.232.355-.348.873-.348 1.553 0 .68.117 1.19.352 1.53.235.34.57.51 1.007.51zm4.895.494c0-.346.093-.607.278-.784.185-.178.455-.266.81-.266.34 0 .606.09.794.272.186.18.28.44.28.778 0 .326-.095.582-.285.77-.19.187-.453.28-.79.28-.346 0-.614-.09-.804-.274-.188-.183-.283-.442-.283-.776z"/></g></svg>