<svg xmlns="http://www.w3.org/2000/svg">
  <symbol id="dg_logo" viewBox="0 0 80 96">
    <path d="M0,0 L0,62.6001368 C0,67.3696078 2.38476972,71.8140384 6.33859646,74.4176788 L39.5989945,95.2152923 L73.1449741,74.4110453 C77.1267025,71.8140384
      79.5311675,67.3530241 79.5311675,62.565311 L79.5311675,0 L0,0 Z" fill="#00A1BB"></path>
    <path d="M43.248,37.906 C43.248,40.2380117 42.8593372,42.3793236 42.082,44.33 C41.3046628,46.2806764 40.212007,47.959993 38.804,49.368 C37.395993,50.776007
      35.7020099,51.8686628 33.722,52.646 C31.7419901,53.4233372 29.5493454,53.812 27.144,53.812 L15,53.812 L15,22 L27.144,22 C29.5493454,22
      31.7419901,22.3923294 33.722,23.177 C35.7020099,23.9616706 37.395993,25.0543263 38.804,26.455 C40.212007,27.8556737 41.3046628,29.5313236 42.082,31.482
      C42.8593372,33.4326764 43.248,35.5739883 43.248,37.906 Z M37.198,37.906 C37.198,36.1606579 36.9633357,34.5950069 36.494,33.209 C36.0246643,31.8229931
      35.3573377,30.6496715 34.492,29.689 C33.6266623,28.7283285 32.5743395,27.9913359 31.335,27.478 C30.0956605,26.9646641 28.6986744,26.708 27.144,26.708
      L20.962,26.708 L20.962,49.104 L27.144,49.104 C28.6986744,49.104 30.0956605,48.8473359 31.335,48.334 C32.5743395,47.8206641 33.6266623,47.0836715
      34.492,46.123 C35.3573377,45.1623285 36.0246643,43.9890069 36.494,42.603 C36.9633357,41.2169931 37.198,39.6513421 37.198,37.906 Z M55.392,30.844
      C56.3600048,30.844 57.2693291,30.942999 58.12,31.141 C58.9706709,31.339001 59.7479965,31.6286648 60.452,32.01 L66.942,32.01 L66.942,34.034
      C66.942,34.371335 66.8540009,34.6353324 66.678,34.826 C66.5019991,35.0166676 66.2013355,35.1486663 65.776,35.222 L63.752,35.596 C63.8986674,35.9773352
      64.0123329,36.3806645 64.093,36.806 C64.1736671,37.2313355 64.214,37.6786643 64.214,38.148 C64.214,39.2626722 63.9903356,40.2709955 63.543,41.173
      C63.0956644,42.0750045 62.4796706,42.8413302 61.695,43.472 C60.9103294,44.1026698 59.9790054,44.5903316 58.901,44.935 C57.8229946,45.2796684
      56.6533396,45.452 55.392,45.452 C54.5413291,45.452 53.7126707,45.3713341 52.906,45.21 C52.2019965,45.6353355 51.85,46.1119974 51.85,46.64
      C51.85,47.0946689 52.0589979,47.4283323 52.477,47.641 C52.8950021,47.8536677 53.4449966,48.0039996 54.127,48.092 C54.8090034,48.1800004
      55.5826623,48.2349999 56.448,48.257 C57.3133377,48.2790001 58.2006621,48.3266663 59.11,48.4 C60.0193379,48.4733337 60.9066623,48.6016657 61.772,48.785
      C62.6373377,48.9683342 63.4109966,49.257998 64.093,49.654 C64.7750034,50.050002 65.3249979,50.5889966 65.743,51.271 C66.1610021,51.9530034
      66.37,52.829328 66.37,53.9 C66.37,54.8973383 66.1243358,55.8653286 65.633,56.804 C65.1416642,57.7426714 64.430338,58.578663 63.499,59.312
      C62.567662,60.045337 61.4273401,60.6356644 60.078,61.083 C58.7286599,61.5303356 57.1886753,61.754 55.458,61.754 C53.7419914,61.754 52.2533396,61.5890017
      50.992,61.259 C49.7306604,60.9289984 48.6856708,60.4890027 47.857,59.939 C47.0283292,59.3889973 46.4086687,58.7546703 45.998,58.036
      C45.5873313,57.3173297 45.382,56.5693372 45.382,55.792 C45.382,54.7359947 45.7046634,53.8486703 46.35,53.13 C46.9953366,52.4113297 47.8899943,51.8393355
      49.034,51.414 C48.4766639,51.1059985 48.029335,50.6953359 47.692,50.182 C47.354665,49.6686641 47.186,49.0013374 47.186,48.18 C47.186,47.842665
      47.2446661,47.4943351 47.362,47.135 C47.4793339,46.7756649 47.6589988,46.4200018 47.901,46.068 C48.1430012,45.7159982 48.4473315,45.3823349 48.814,45.067
      C49.1806685,44.7516651 49.6133308,44.4693346 50.112,44.22 C48.9679943,43.6039969 48.0696699,42.7826718 47.417,41.756 C46.7643301,40.7293282
      46.438,39.5266736 46.438,38.148 C46.438,37.0333278 46.6616644,36.0250045 47.109,35.123 C47.5563356,34.2209955 48.1796627,33.4510032 48.979,32.813
      C49.7783373,32.1749968 50.7243279,31.687335 51.817,31.35 C52.9096721,31.012665 54.1013269,30.844 55.392,30.844 Z M61.354,54.824 C61.354,54.3839978
      61.2220013,54.0246681 60.958,53.746 C60.6939987,53.4673319 60.3346689,53.2510008 59.88,53.097 C59.4253311,52.9429992 58.8936697,52.8293337 58.285,52.756
      C57.6763303,52.6826663 57.0310034,52.6276668 56.349,52.591 C55.6669966,52.5543332 54.9630036,52.5176668 54.237,52.481 C53.5109964,52.4443331
      52.81067,52.3820004 52.136,52.294 C51.5199969,52.631335 51.0250019,53.0309977 50.651,53.493 C50.2769981,53.9550023 50.09,54.4866637 50.09,55.088
      C50.09,55.484002 50.188999,55.8543316 50.387,56.199 C50.585001,56.5436684 50.9003312,56.8406654 51.333,57.09 C51.7656688,57.3393346 52.3266632,57.533666
      53.016,57.673 C53.7053368,57.812334 54.5486617,57.882 55.546,57.882 C56.5580051,57.882 57.430663,57.8050008 58.164,57.651 C58.897337,57.4969992
      59.502331,57.2843347 59.979,57.013 C60.4556691,56.7416653 60.8039989,56.4190019 61.024,56.045 C61.2440011,55.6709981 61.354,55.2640022 61.354,54.824 Z
      M55.392,41.976 C56.06667,41.976 56.6533308,41.8843342 57.152,41.701 C57.6506692,41.5176658 58.0649983,41.2646683 58.395,40.942 C58.7250017,40.6193317
      58.9743325,40.2306689 59.143,39.776 C59.3116675,39.3213311 59.396,38.8226694 59.396,38.28 C59.396,37.1653278 59.0623367,36.2816699 58.395,35.629
      C57.7276633,34.9763301 56.7266733,34.65 55.392,34.65 C54.0573267,34.65 53.0563367,34.9763301 52.389,35.629 C51.7216633,36.2816699 51.388,37.1653278
      51.388,38.28 C51.388,38.8080026 51.4723325,39.2993311 51.641,39.754 C51.8096675,40.2086689 52.0589984,40.6009983 52.389,40.931 C52.7190016,41.2610016
      53.1369975,41.5176658 53.643,41.701 C54.1490025,41.8843342 54.7319967,41.976 55.392,41.976 Z" fill="#fff"></path>
  </symbol>
</svg>
